# xmcd
#
# Track frame offsets: 
#        150
#        12374
#        25093
#        49031
#        62393
#        75698
#        96110
#        109533
#        124130
#        128539
#        140800
#        157159
#
# Disc length: 2194 seconds
#
# Revision: 0
# Processed by: cddbd v1.5.2PL0 Copyright (c) Steve Scherf et al.
# Submitted via: ExactAudioCopy v0.99pb4
#
DISCID=9608900c
DTITLE=金艺言 - 经典韩剧蓝色生死恋系列浪漫情境钢琴演奏曲CD3 CD+VCD超级
DTITLE=珍藏版四碟精装(台湾新点子音乐授权南京音像引进版)
DYEAR=2004
DGENRE=古典水晶浪漫
TTITLE0=《从开始到现在》
TTITLE1=《白色的恋人》
TTITLE2=《我的回忆》
TTITLE3=《预感》
TTITLE4=《你的眼泪》
TTITLE5=《仍然》
TTITLE6=《想念你》
TTITLE7=《火花》
TTITLE8=《再见吾爱》
TTITLE9=《星星》
TTITLE10=《夜光下的记忆》
TTITLE11=《小夜曲》
EXTD=
EXTT0=
EXTT1=
EXTT2=
EXTT3=
EXTT4=
EXTT5=
EXTT6=
EXTT7=
EXTT8=
EXTT9=
EXTT10=
EXTT11=
PLAYORDER=
